<svg width="182" height="64" viewBox="0 0 182 64" fill="none" xmlns="http://www.w3.org/2000/svg">
<path d="M14.642 11.8496L10.0671 20.5861C9.77168 21.1501 9.96621 21.8554 10.5046 22.1725L17.6681 26.3922C18.214 26.7137 18.9079 26.516 19.2183 25.9504L27.9745 10.0006H17.6401C16.3892 10.0006 15.2386 10.7102 14.642 11.8496Z" fill="#E63946"/>
<path d="M27.9743 10L19.2184 25.95C18.9074 26.5154 18.214 26.7136 17.6683 26.3923L15.7986 25.2913C16.2544 25.3674 16.7287 25.1503 16.9701 24.7099L25.047 10H27.9743Z" fill="#1D3557"/>
<path d="M37.5549 18.4592L34.3995 11.949C33.8206 10.7546 32.641 10.0006 31.3513 10.0006H22.228L29.2328 22.3166C29.2099 22.3273 29.1868 22.338 29.1638 22.3487C28.7232 22.5542 28.7412 23.2093 29.1923 23.3888L35.241 25.796C35.5213 25.9076 35.8358 25.7625 35.9434 25.4721L38.2751 19.1795C38.4475 18.7141 37.9948 18.2649 37.5549 18.4592V18.4592Z" fill="#E63946"/>
<path d="M38.2754 19.179L35.943 25.4715C35.8358 25.7627 35.5209 25.9079 35.2409 25.7958L33.4107 25.0671L35.5924 19.179C35.7165 18.8451 35.5184 18.5199 35.2341 18.4346C34.9635 18.3533 34.7324 18.1695 34.6059 17.9086L31.7167 11.9488C31.1382 10.7547 29.959 10 28.6687 10H31.3516C32.641 10 33.8202 10.7547 34.3996 11.9488L37.5549 18.4595C37.9953 18.2652 38.4473 18.7136 38.2754 19.179Z" fill="#E63946"/>
<path d="M31.4594 43.5593C31.3744 43.1978 30.9244 43.043 30.6498 43.3275L25.9222 48.2268C25.7336 48.4223 25.7336 48.7391 25.9222 48.9345L30.668 53.8526C30.9408 54.1353 31.3862 53.9844 31.4758 53.6291H38.4548C39.7397 53.6291 40.9156 52.8809 41.4969 51.6934L45.4791 43.5592H31.4594V43.5593Z" fill="#E63946"/>
<path d="M37.3508 43.5594L39.6137 47.1079C40.1253 47.9101 40.1819 48.9353 39.762 49.7928L38.8313 51.6935C38.2509 52.8806 37.0745 53.6293 35.79 53.6293H38.4547C39.7392 53.6293 40.9155 52.8806 41.497 51.6935L45.4789 43.5595H37.3508V43.5594Z" fill="#1D3557"/>
<path d="M21.9354 52.6939V44.0356C21.9354 43.3849 21.4263 42.8572 20.7983 42.8572H2.06787L6.88812 52.0281C7.48559 53.1649 8.63469 53.8723 9.88372 53.8723H20.7983C21.4262 53.8723 21.9354 53.3448 21.9354 52.6939Z" fill="#E63946"/>
<path d="M10.0115 42.858L5.85181 50.0573L2.06787 42.858H10.0115Z" fill="#E63946"/>
<path d="M21.9352 44.0358V52.6944C21.9352 53.345 21.4262 53.8724 20.7985 53.8724H17.8152C18.4429 53.8724 18.9519 53.345 18.9519 52.6944V44.0358C18.9519 43.3852 18.4429 42.8578 17.8152 42.8578H20.7985C21.4262 42.8577 21.9352 43.3852 21.9352 44.0358Z" fill="#1D3557"/>
<path d="M12.7847 35.2066L11.9436 28.6467C11.902 28.3226 11.6148 28.0949 11.3021 28.1379L4.94784 29.0129C4.46934 29.0788 4.29102 29.682 4.61877 30.0176L0.608522 36.0077C-0.126759 37.106 -0.201384 38.54 0.415585 39.7138L4.77955 48.0167L11.8654 35.7507C11.8679 35.7526 11.8703 35.7546 11.8729 35.7566C12.2773 36.0747 12.8515 35.7282 12.7847 35.2066Z" fill="#E63946"/>
<path d="M11.8725 35.7566C11.8705 35.7545 11.8677 35.7526 11.8657 35.7506L4.77961 48.0163L3.32227 45.2438L9.08977 35.2586L9.2497 34.9816C9.33717 34.8302 9.50808 34.7648 9.67523 34.7984C9.67608 34.7986 9.67692 34.7987 9.67777 34.7989C10.0334 34.8646 10.3981 34.5576 10.3435 34.1362L9.60464 28.3712L11.3015 28.138C11.6145 28.095 11.9023 28.3232 11.9438 28.6464L12.785 35.2072C12.8518 35.7285 12.2771 36.0748 11.8725 35.7566Z" fill="#E63946"/>
<path d="M47.3962 35.5569L41.9106 27.3197C41.5741 26.8144 40.9195 26.6615 40.4064 26.9684L33.2576 31.2435C32.6903 31.5828 32.5162 32.3475 32.8774 32.9139L42.9551 48.7151L47.6308 39.1643C48.1967 38.0083 48.1067 36.6239 47.3962 35.5569V35.5569Z" fill="#E63946"/>
<path d="M47.6309 39.1645L42.9546 48.7148L41.3861 46.2546L44.8572 39.1644C45.4232 38.0084 45.3334 36.6242 44.6226 35.5572L39.3311 27.6123L40.4069 26.9687C40.9197 26.6614 41.5746 26.8145 41.9107 27.32L47.3964 35.5573C48.1071 36.6243 48.1969 38.0085 47.6309 39.1645Z" fill="#E61946"/>
<path d="M70.504 41.336C67.8 41.336 65.736 40.584 64.312 39.08C62.904 37.576 62.2 35.44 62.2 32.672C62.2 31.296 62.416 30.072 62.848 29C63.28 27.912 63.872 27 64.624 26.264C65.376 25.512 66.272 24.944 67.312 24.56C68.352 24.176 69.48 23.984 70.696 23.984C71.4 23.984 72.04 24.04 72.616 24.152C73.192 24.248 73.696 24.368 74.128 24.512C74.56 24.64 74.92 24.776 75.208 24.92C75.496 25.064 75.704 25.176 75.832 25.256L74.752 28.28C74.24 28.008 73.64 27.776 72.952 27.584C72.28 27.392 71.512 27.296 70.648 27.296C70.072 27.296 69.504 27.392 68.944 27.584C68.4 27.776 67.912 28.088 67.48 28.52C67.064 28.936 66.728 29.48 66.472 30.152C66.216 30.824 66.088 31.64 66.088 32.6C66.088 33.368 66.168 34.088 66.328 34.76C66.504 35.416 66.776 35.984 67.144 36.464C67.528 36.944 68.024 37.328 68.632 37.616C69.24 37.888 69.976 38.024 70.84 38.024C71.384 38.024 71.872 37.992 72.304 37.928C72.736 37.864 73.12 37.792 73.456 37.712C73.792 37.616 74.088 37.512 74.344 37.4C74.6 37.288 74.832 37.184 75.04 37.088L76.072 40.088C75.544 40.408 74.8 40.696 73.84 40.952C72.88 41.208 71.768 41.336 70.504 41.336ZM89.7693 34.664C89.7693 35.656 89.6253 36.568 89.3373 37.4C89.0493 38.216 88.6333 38.92 88.0893 39.512C87.5453 40.088 86.8893 40.536 86.1213 40.856C85.3693 41.176 84.5213 41.336 83.5773 41.336C82.6493 41.336 81.8013 41.176 81.0333 40.856C80.2813 40.536 79.6333 40.088 79.0893 39.512C78.5453 38.92 78.1213 38.216 77.8173 37.4C77.5133 36.568 77.3613 35.656 77.3613 34.664C77.3613 33.672 77.5133 32.768 77.8173 31.952C78.1373 31.136 78.5693 30.44 79.1133 29.864C79.6733 29.288 80.3293 28.84 81.0813 28.52C81.8493 28.2 82.6813 28.04 83.5773 28.04C84.4893 28.04 85.3213 28.2 86.0733 28.52C86.8413 28.84 87.4973 29.288 88.0413 29.864C88.5853 30.44 89.0093 31.136 89.3133 31.952C89.6173 32.768 89.7693 33.672 89.7693 34.664ZM86.1213 34.664C86.1213 33.56 85.8973 32.696 85.4493 32.072C85.0173 31.432 84.3933 31.112 83.5773 31.112C82.7613 31.112 82.1293 31.432 81.6813 32.072C81.2333 32.696 81.0093 33.56 81.0093 34.664C81.0093 35.768 81.2333 36.648 81.6813 37.304C82.1293 37.944 82.7613 38.264 83.5773 38.264C84.3933 38.264 85.0173 37.944 85.4493 37.304C85.8973 36.648 86.1213 35.768 86.1213 34.664ZM97.5794 41.24C96.5394 41.224 95.6914 41.112 95.0354 40.904C94.3954 40.696 93.8834 40.408 93.4994 40.04C93.1314 39.656 92.8754 39.2 92.7314 38.672C92.6034 38.128 92.5394 37.52 92.5394 36.848V22.952L96.1154 22.376V36.128C96.1154 36.448 96.1394 36.736 96.1874 36.992C96.2354 37.248 96.3234 37.464 96.4514 37.64C96.5954 37.816 96.7954 37.96 97.0514 38.072C97.3074 38.184 97.6514 38.256 98.0834 38.288L97.5794 41.24ZM99.5331 34.784C99.5331 33.664 99.7011 32.688 100.037 31.856C100.389 31.008 100.845 30.304 101.405 29.744C101.965 29.184 102.605 28.76 103.325 28.472C104.061 28.184 104.813 28.04 105.581 28.04C107.373 28.04 108.789 28.592 109.829 29.696C110.869 30.784 111.389 32.392 111.389 34.52C111.389 34.728 111.381 34.96 111.365 35.216C111.349 35.456 111.333 35.672 111.317 35.864H103.205C103.285 36.6 103.629 37.184 104.237 37.616C104.845 38.048 105.661 38.264 106.685 38.264C107.341 38.264 107.981 38.208 108.605 38.096C109.245 37.968 109.765 37.816 110.165 37.64L110.645 40.544C110.453 40.64 110.197 40.736 109.877 40.832C109.557 40.928 109.197 41.008 108.797 41.072C108.413 41.152 107.997 41.216 107.549 41.264C107.101 41.312 106.653 41.336 106.205 41.336C105.069 41.336 104.077 41.168 103.229 40.832C102.397 40.496 101.701 40.04 101.141 39.464C100.597 38.872 100.189 38.176 99.9171 37.376C99.6611 36.576 99.5331 35.712 99.5331 34.784ZM107.933 33.416C107.917 33.112 107.861 32.816 107.765 32.528C107.685 32.24 107.549 31.984 107.357 31.76C107.181 31.536 106.949 31.352 106.661 31.208C106.389 31.064 106.045 30.992 105.629 30.992C105.229 30.992 104.885 31.064 104.597 31.208C104.309 31.336 104.069 31.512 103.877 31.736C103.685 31.96 103.533 32.224 103.421 32.528C103.325 32.816 103.253 33.112 103.205 33.416H107.933ZM126.725 24.368V27.56H121.709V41H117.965V27.56H112.949V24.368H126.725Z" fill="#1D3557"/>
<path d="M129.131 41V24.368H140.363V27.512H132.875V30.776H139.523V33.848H132.875V37.856H140.915V41H129.131ZM154.822 41C154.646 40.424 154.446 39.832 154.222 39.224C154.014 38.616 153.806 38.008 153.598 37.4H147.118C146.91 38.008 146.694 38.616 146.47 39.224C146.262 39.832 146.07 40.424 145.894 41H142.006C142.63 39.208 143.222 37.552 143.782 36.032C144.342 34.512 144.886 33.08 145.414 31.736C145.958 30.392 146.486 29.12 146.998 27.92C147.526 26.704 148.07 25.52 148.63 24.368H152.206C152.75 25.52 153.286 26.704 153.814 27.92C154.342 29.12 154.87 30.392 155.398 31.736C155.942 33.08 156.494 34.512 157.054 36.032C157.614 37.552 158.206 39.208 158.83 41H154.822ZM150.334 28.136C150.254 28.376 150.134 28.704 149.974 29.12C149.814 29.536 149.63 30.016 149.422 30.56C149.214 31.104 148.982 31.704 148.726 32.36C148.486 33.016 148.238 33.704 147.982 34.424H152.71C152.454 33.704 152.206 33.016 151.966 32.36C151.726 31.704 151.494 31.104 151.27 30.56C151.062 30.016 150.878 29.536 150.718 29.12C150.558 28.704 150.43 28.376 150.334 28.136ZM165.398 24.368C165.687 24.896 166.015 25.552 166.383 26.336C166.767 27.104 167.159 27.944 167.559 28.856C167.975 29.752 168.383 30.672 168.783 31.616C169.183 32.56 169.559 33.448 169.911 34.28C170.263 33.448 170.639 32.56 171.039 31.616C171.439 30.672 171.839 29.752 172.239 28.856C172.655 27.944 173.047 27.104 173.415 26.336C173.799 25.552 174.135 24.896 174.423 24.368H177.831C177.991 25.472 178.135 26.712 178.263 28.088C178.407 29.448 178.527 30.872 178.623 32.36C178.735 33.832 178.831 35.312 178.911 36.8C179.007 38.288 179.087 39.688 179.151 41H175.503C175.455 39.384 175.391 37.624 175.311 35.72C175.231 33.816 175.111 31.896 174.951 29.96C174.663 30.632 174.343 31.376 173.991 32.192C173.639 33.008 173.287 33.824 172.935 34.64C172.599 35.456 172.271 36.24 171.951 36.992C171.631 37.728 171.359 38.36 171.135 38.888H168.519C168.295 38.36 168.023 37.728 167.703 36.992C167.383 36.24 167.047 35.456 166.695 34.64C166.359 33.824 166.015 33.008 165.663 32.192C165.311 31.376 164.991 30.632 164.703 29.96C164.543 31.896 164.423 33.816 164.343 35.72C164.263 37.624 164.199 39.384 164.151 41H160.503C160.567 39.688 160.639 38.288 160.719 36.8C160.815 35.312 160.911 33.832 161.007 32.36C161.119 30.872 161.239 29.448 161.367 28.088C161.511 26.712 161.663 25.472 161.823 24.368H165.398Z" fill="#E63946"/>
</svg>
